<?xml version="1.0" encoding="UTF-8" standalone="no"?>
<!DOCTYPE svg PUBLIC "-//W3C//DTD SVG 20010904//EN"
              "http://www.w3.org/TR/2001/REC-SVG-20010904/DTD/svg10.dtd">

<svg xmlns="http://www.w3.org/2000/svg"
     width="15.5333in" height="1.75556in"
     viewBox="0 0 1398 158">
  <path id="Selectie"
        fill="none" stroke="black" stroke-width="1"
        d="M 0.00,0.00
           C 0.00,0.00 137.00,0.00 137.00,0.00
             137.00,0.00 137.00,71.00 137.00,71.00
             137.00,71.00 135.98,78.62 135.98,78.62
             135.98,78.62 127.00,84.85 127.00,84.85
             127.00,84.85 106.00,97.01 106.00,97.01
             106.00,97.01 33.00,139.28 33.00,139.28
             33.00,139.28 0.00,158.00 0.00,158.00
             0.00,158.00 0.00,0.00 0.00,0.00 Z
           M 143.00,0.00
           C 143.00,0.00 416.00,0.00 416.00,0.00
             416.00,0.00 416.00,71.00 416.00,71.00
             416.00,71.00 414.98,78.79 414.98,78.79
             414.98,78.79 406.00,85.28 406.00,85.28
             406.00,85.28 389.00,95.15 389.00,95.15
             389.00,95.15 309.00,141.42 309.00,141.42
             309.00,141.42 289.00,153.01 289.00,153.01
             289.00,153.01 279.00,157.28 279.00,157.28
             279.00,157.28 269.00,152.28 269.00,152.28
             269.00,152.28 248.00,140.15 248.00,140.15
             248.00,140.15 172.00,96.01 172.00,96.01
             172.00,96.01 153.00,85.01 153.00,85.01
             153.00,85.01 144.02,78.67 144.02,78.67
             144.02,78.67 143.00,71.00 143.00,71.00
             143.00,71.00 143.00,0.00 143.00,0.00 Z
           M 423.00,0.00
           C 423.00,0.00 696.00,0.00 696.00,0.00
             696.00,0.00 696.00,71.00 696.00,71.00
             696.00,71.00 694.98,78.67 694.98,78.67
             694.98,78.67 687.00,84.42 687.00,84.42
             687.00,84.42 668.00,95.42 668.00,95.42
             668.00,95.42 589.00,141.28 589.00,141.28
             589.00,141.28 569.00,152.85 569.00,152.85
             569.00,152.85 559.00,157.20 559.00,157.20
             559.00,157.20 549.00,152.42 549.00,152.42
             549.00,152.42 529.00,140.85 529.00,140.85
             529.00,140.85 451.00,95.72 451.00,95.72
             451.00,95.72 433.00,85.28 433.00,85.28
             433.00,85.28 424.02,78.79 424.02,78.79
             424.02,78.79 423.00,71.00 423.00,71.00
             423.00,71.00 423.00,0.00 423.00,0.00 Z
           M 702.00,0.00
           C 702.00,0.00 975.00,0.00 975.00,0.00
             975.00,0.00 975.00,72.00 975.00,72.00
             975.00,72.00 974.01,79.37 974.01,79.37
             974.01,79.37 965.00,85.28 965.00,85.28
             965.00,85.28 946.00,96.28 946.00,96.28
             946.00,96.28 871.00,139.80 871.00,139.80
             871.00,139.80 850.00,151.99 850.00,151.99
             850.00,151.99 839.00,157.20 839.00,157.20
             839.00,157.20 828.00,152.20 828.00,152.20
             828.00,152.20 808.00,140.60 808.00,140.60
             808.00,140.60 730.00,95.42 730.00,95.42
             730.00,95.42 711.00,84.42 711.00,84.42
             711.00,84.42 703.02,78.67 703.02,78.67
             703.02,78.67 702.00,71.00 702.00,71.00
             702.00,71.00 702.00,0.00 702.00,0.00 Z
           M 982.00,0.00
           C 982.00,0.00 1255.00,0.00 1255.00,0.00
             1255.00,0.00 1255.00,71.00 1255.00,71.00
             1255.00,71.00 1253.98,78.67 1253.98,78.67
             1253.98,78.67 1246.00,84.42 1246.00,84.42
             1246.00,84.42 1227.00,95.42 1227.00,95.42
             1227.00,95.42 1150.00,140.01 1150.00,140.01
             1150.00,140.01 1128.00,152.85 1128.00,152.85
             1128.00,152.85 1118.00,157.20 1118.00,157.20
             1118.00,157.20 1107.00,151.99 1107.00,151.99
             1107.00,151.99 1086.00,139.80 1086.00,139.80
             1086.00,139.80 1010.00,95.72 1010.00,95.72
             1010.00,95.72 992.00,85.28 992.00,85.28
             992.00,85.28 982.99,79.37 982.99,79.37
             982.99,79.37 982.00,72.00 982.00,72.00
             982.00,72.00 982.00,0.00 982.00,0.00 Z
           M 1261.00,0.00
           C 1261.00,0.00 1398.00,0.00 1398.00,0.00
             1398.00,0.00 1398.00,158.00 1398.00,158.00
             1398.00,158.00 1365.00,139.42 1365.00,139.42
             1365.00,139.42 1293.00,97.72 1293.00,97.72
             1293.00,97.72 1271.00,84.99 1271.00,84.99
             1271.00,84.99 1262.02,78.62 1262.02,78.62
             1262.02,78.62 1261.00,71.00 1261.00,71.00
             1261.00,71.00 1261.00,0.00 1261.00,0.00 Z
           M 977.00,89.00
           C 977.00,89.00 978.00,89.00 978.00,89.00
             978.00,89.00 977.00,90.00 977.00,90.00
             977.00,90.00 977.00,89.00 977.00,89.00 Z
           M 1304.00,116.00
           C 1304.00,116.00 1308.00,118.00 1308.00,118.00
             1308.00,118.00 1304.00,116.00 1304.00,116.00 Z
           M 773.00,132.00
           C 773.00,132.00 774.00,132.00 774.00,132.00
             774.00,132.00 773.00,133.00 773.00,133.00
             773.00,133.00 773.00,132.00 773.00,132.00 Z
           M 54.00,138.00
           C 54.00,138.00 55.00,138.00 55.00,138.00
             55.00,138.00 54.00,139.00 54.00,139.00
             54.00,139.00 54.00,138.00 54.00,138.00 Z
           M 42.00,145.00
           C 42.00,145.00 43.00,145.00 43.00,145.00
             43.00,145.00 42.00,146.00 42.00,146.00
             42.00,146.00 42.00,145.00 42.00,145.00 Z" />
</svg>
